<svg width="32" height="32" viewBox="0 0 32 32" fill="none" xmlns="http://www.w3.org/2000/svg">
<mask id="mask0_2817_20055" style="mask-type:alpha" maskUnits="userSpaceOnUse" x="0" y="0" width="32" height="32">
<rect width="32" height="32" fill="black"/>
</mask>
<g mask="url(#mask0_2817_20055)">
<rect width="32" height="32" fill="black"/>
<path fill-rule="evenodd" clip-rule="evenodd" d="M3.67794 30.9992H22.8331L20.1971 26.9573L15.9794 25.2V21.3338L20.3728 19.225L20.9 17.4676L21.7787 18.8735L25.2934 17.4676H27.7537V13.25H20.3728L20.9 14.1286L18.7912 13.25H5.25956L3.85368 14.4801L4.20515 13.0742H1.56912V14.1286L0.338972 13.25H-3L-0.188234 18.6978L10.0044 21.3338L10.1802 25.2L6.48971 26.7816L4.73236 29.2419L5.61103 29.5933L3.67794 30.9992ZM12.6375 21.5095H13.5162V25.2H12.4617V21.5095H12.6375Z" fill="white"/>
<path d="M22.8331 30.9992V31.2002H23.2042L23.0015 30.8894L22.8331 30.9992ZM3.67794 30.9992L3.55972 30.8367L3.05982 31.2002H3.67794V30.9992ZM20.1971 26.9573L20.3654 26.8475L20.3316 26.7956L20.2744 26.7718L20.1971 26.9573ZM15.9794 25.2H15.7784V25.334L15.9021 25.3855L15.9794 25.2ZM15.9794 21.3338L15.8924 21.1526L15.7784 21.2073V21.3338H15.9794ZM20.3728 19.225L20.4598 19.4062L20.5398 19.3677L20.5653 19.2827L20.3728 19.225ZM20.9 17.4676L21.0705 17.3611L20.8351 16.9845L20.7075 17.4098L20.9 17.4676ZM21.7787 18.8735L21.6082 18.98L21.6973 19.1225L21.8533 19.0601L21.7787 18.8735ZM25.2934 17.4676V17.2666H25.2547L25.2187 17.281L25.2934 17.4676ZM27.7537 17.4676V17.6686H27.9547V17.4676H27.7537ZM27.7537 13.25H27.9547V13.0489H27.7537V13.25ZM20.3728 13.25V13.0489H20.0178L20.2004 13.3534L20.3728 13.25ZM20.9 14.1286L20.8227 14.3142L21.3868 14.5492L21.0724 14.0252L20.9 14.1286ZM18.7912 13.25L18.8685 13.0644L18.8314 13.0489H18.7912V13.25ZM5.25956 13.25V13.0489H5.18404L5.1272 13.0987L5.25956 13.25ZM3.85368 14.4801L3.65868 14.4314L3.50301 15.054L3.98604 14.6314L3.85368 14.4801ZM4.20515 13.0742L4.40015 13.123L4.46259 12.8732H4.20515V13.0742ZM1.56912 13.0742V12.8732H1.36811V13.0742H1.56912ZM1.56912 14.1286L1.45229 14.2922L1.77012 14.5192V14.1286H1.56912ZM0.338972 13.25L0.455803 13.0864L0.403387 13.0489H0.338972V13.25ZM-3 13.25V13.0489H-3.32994L-3.17862 13.3421L-3 13.25ZM-0.188234 18.6978L-0.366851 18.7899L-0.325613 18.8698L-0.238562 18.8924L-0.188234 18.6978ZM10.0044 21.3338L10.2052 21.3247L10.1985 21.1763L10.0547 21.1392L10.0044 21.3338ZM10.1802 25.2L10.2593 25.3847L10.3873 25.3299L10.3809 25.1908L10.1802 25.2ZM6.48971 26.7816L6.41053 26.5968L6.35883 26.619L6.32614 26.6647L6.48971 26.7816ZM4.73236 29.2419L4.56879 29.125L4.41996 29.3334L4.6577 29.4285L4.73236 29.2419ZM5.61103 29.5933L5.72926 29.7559L6.02356 29.5419L5.68568 29.4067L5.61103 29.5933ZM13.5162 21.5095H13.7172V21.3085H13.5162V21.5095ZM13.5162 25.2V25.401H13.7172V25.2H13.5162ZM12.4617 25.2H12.2607V25.401H12.4617V25.2ZM12.4617 21.5095V21.3085H12.2607V21.5095H12.4617ZM22.8331 30.7982H3.67794V31.2002H22.8331V30.7982ZM20.0287 27.0671L22.6647 31.109L23.0015 30.8894L20.3654 26.8475L20.0287 27.0671ZM15.9021 25.3855L20.1198 27.1429L20.2744 26.7718L16.0567 25.0144L15.9021 25.3855ZM15.7784 21.3338V25.2H16.1804V21.3338H15.7784ZM20.2858 19.0437L15.8924 21.1526L16.0664 21.515L20.4598 19.4062L20.2858 19.0437ZM20.7075 17.4098L20.1803 19.1672L20.5653 19.2827L21.0925 17.5254L20.7075 17.4098ZM21.9491 18.767L21.0705 17.3611L20.7296 17.5741L21.6082 18.98L21.9491 18.767ZM25.2187 17.281L21.704 18.6869L21.8533 19.0601L25.368 17.6542L25.2187 17.281ZM27.7537 17.2666H25.2934V17.6686H27.7537V17.2666ZM27.5527 13.25V17.4676H27.9547V13.25H27.5527ZM20.3728 13.451H27.7537V13.0489H20.3728V13.451ZM21.0724 14.0252L20.5452 13.1465L20.2004 13.3534L20.7276 14.232L21.0724 14.0252ZM18.7139 13.4355L20.8227 14.3142L20.9773 13.9431L18.8685 13.0644L18.7139 13.4355ZM5.25956 13.451H18.7912V13.0489H5.25956V13.451ZM3.98604 14.6314L5.39192 13.4012L5.1272 13.0987L3.72132 14.3288L3.98604 14.6314ZM4.01015 13.0255L3.65868 14.4314L4.04868 14.5289L4.40015 13.123L4.01015 13.0255ZM1.56912 13.2752H4.20515V12.8732H1.56912V13.2752ZM1.77012 14.1286V13.0742H1.36811V14.1286H1.77012ZM0.22214 13.4135L1.45229 14.2922L1.68595 13.9651L0.455803 13.0864L0.22214 13.4135ZM-3 13.451H0.338972V13.0489H-3V13.451ZM-0.00961759 18.6056L-2.82138 13.1578L-3.17862 13.3421L-0.366851 18.7899L-0.00961759 18.6056ZM10.0547 21.1392L-0.137906 18.5031L-0.238562 18.8924L9.95409 21.5284L10.0547 21.1392ZM10.3809 25.1908L10.2052 21.3247L9.80362 21.3429L9.97935 25.2091L10.3809 25.1908ZM6.56889 26.9663L10.2593 25.3847L10.101 25.0152L6.41053 26.5968L6.56889 26.9663ZM4.89592 29.3587L6.65327 26.8984L6.32614 26.6647L4.56879 29.125L4.89592 29.3587ZM5.68568 29.4067L4.80701 29.0552L4.6577 29.4285L5.53638 29.78L5.68568 29.4067ZM3.79617 31.1618L5.72926 29.7559L5.49281 29.4308L3.55972 30.8367L3.79617 31.1618ZM13.5162 21.3085H12.6375V21.7105H13.5162V21.3085ZM13.7172 25.2V21.5095H13.3151V25.2H13.7172ZM12.4617 25.401H13.5162V24.999H12.4617V25.401ZM12.2607 21.5095V25.2H12.6627V21.5095H12.2607ZM12.6375 21.3085H12.4617V21.7105H12.6375V21.3085Z" fill="black"/>
<path d="M26.2359 10.9619L35.4855 17.3445L33.6458 19.9694L32.3905 20.1313L32.3894 21.2764L22.5834 14.299L14.1195 7.91113L11.4152 12.2292L8.59273 12.8656L8.59071 10.0371L13.3706 3.26012L14.2219 2.05323L15.3602 0.439237L17.8372 2.41214L16.2511 4.54073L23.7205 9.72422L24.9337 12.2648L26.2359 10.9619Z" fill="white"/>
<path d="M13.3706 3.26012L8.59071 10.0371L8.59273 12.8656L11.4152 12.2292L14.1195 7.91113L22.5834 14.299L32.3894 21.2764L32.3905 20.1313L33.6458 19.9694L35.4855 17.3445L26.2359 10.9619L24.9337 12.2648L23.7205 9.72422L16.2511 4.54073L17.8372 2.41214L15.3602 0.439237L14.2219 2.05324M13.3706 3.26012L13.671 4.00545L14.2219 2.05324M13.3706 3.26012L14.2219 2.05324" stroke="black" stroke-width="0.402009"/>
</g>
<circle cx="10" cy="17" r="7" fill="black"/>
<path d="M9.73642 14.8779C9.73642 14.9099 9.72725 14.9397 9.70892 14.9672C9.69059 14.9901 9.66997 15.0131 9.64705 15.036C9.62413 15.0543 9.59893 15.0749 9.57143 15.0978C9.54851 15.1208 9.53018 15.146 9.51643 15.1735C9.51185 15.1826 9.50956 15.1987 9.50956 15.2216C9.51414 15.2399 9.51185 15.256 9.50268 15.2697C9.47977 15.3339 9.44768 15.4049 9.40644 15.4828C9.36519 15.5562 9.32852 15.6318 9.29644 15.7097C9.28269 15.7464 9.26665 15.7853 9.24832 15.8266C9.23457 15.8632 9.21624 15.8999 9.19332 15.9366C9.17499 15.9732 9.15207 16.0122 9.12457 16.0534C9.10166 16.0901 9.08791 16.1222 9.08333 16.1497C9.07874 16.1726 9.08103 16.1955 9.0902 16.2184C9.10395 16.2368 9.11082 16.2574 9.11082 16.2803C9.10166 16.3261 9.08791 16.3742 9.06958 16.4247C9.05124 16.4751 9.03749 16.5255 9.02833 16.5759C9.01916 16.6355 9.01 16.6928 9.00083 16.7478C8.99625 16.7982 8.98708 16.8463 8.97333 16.8921C8.95042 16.9563 8.92521 17.0319 8.89771 17.119C8.87021 17.2015 8.84959 17.2886 8.83584 17.3802C8.99625 17.3802 9.14978 17.3596 9.29644 17.3184C9.44768 17.2771 9.58976 17.2336 9.72267 17.1877C9.75475 17.1969 9.80288 17.2038 9.86704 17.2084C9.9312 17.213 9.99766 17.2152 10.0664 17.2152C10.1397 17.2152 10.2131 17.2152 10.2864 17.2152C10.3597 17.2107 10.4239 17.2038 10.4789 17.1946C10.5339 17.19 10.6003 17.1786 10.6783 17.1602C10.7562 17.1373 10.8066 17.1121 10.8295 17.0846C10.8662 17.0342 10.8914 16.9609 10.9051 16.8646C10.9189 16.7684 10.9372 16.6767 10.9601 16.5897C10.983 16.5117 11.0105 16.4361 11.0426 16.3628C11.0747 16.2895 11.0999 16.2184 11.1182 16.1497C11.1274 16.1222 11.1297 16.0947 11.1251 16.0672C11.1251 16.0351 11.1297 16.0053 11.1389 15.9778C11.1618 15.8999 11.1961 15.8243 11.242 15.7509C11.2878 15.6776 11.3176 15.6157 11.3313 15.5653C11.3451 15.5149 11.3543 15.4622 11.3588 15.4072C11.3634 15.3522 11.368 15.2995 11.3726 15.2491C11.3818 15.1987 11.3909 15.1528 11.4001 15.1116C11.4138 15.0658 11.4368 15.0268 11.4688 14.9947C11.4872 14.9856 11.5032 14.9764 11.517 14.9672C11.5353 14.9535 11.5536 14.9397 11.572 14.926C11.6315 14.9443 11.6842 14.9535 11.7301 14.9535C11.7759 14.9535 11.8194 14.9512 11.8607 14.9466C11.9065 14.9374 11.9501 14.926 11.9913 14.9122C12.0326 14.8985 12.0807 14.8847 12.1357 14.871C12.1769 14.9076 12.209 14.9489 12.2319 14.9947C12.2548 15.036 12.2984 15.0589 12.3625 15.0635C12.39 15.0635 12.4175 15.0543 12.445 15.036C12.4725 15.0176 12.5046 15.0039 12.5413 14.9947C12.6055 14.9764 12.6834 14.9558 12.775 14.9329C12.8713 14.9054 12.9538 14.8916 13.0225 14.8916C13.1004 14.887 13.1715 14.8939 13.2356 14.9122C13.2998 14.926 13.3708 14.9214 13.4487 14.8985C13.4671 14.9168 13.4831 14.9374 13.4969 14.9604C13.5106 14.9833 13.5106 15.0176 13.4969 15.0635C13.451 15.1001 13.4029 15.1322 13.3525 15.1597C13.3067 15.1826 13.2585 15.2078 13.2081 15.2353C13.1623 15.2583 13.1165 15.2835 13.0706 15.311C13.0294 15.3385 12.9904 15.3728 12.9538 15.4141C12.8896 15.4874 12.8346 15.5745 12.7888 15.6753C12.7475 15.7761 12.7017 15.8724 12.6513 15.9641C12.633 15.9961 12.6123 16.0282 12.5894 16.0603C12.5665 16.0878 12.5505 16.113 12.5413 16.1359C12.5138 16.2047 12.4955 16.2803 12.4863 16.3628C12.4771 16.4407 12.4634 16.5186 12.445 16.5965C12.4267 16.6744 12.4061 16.7501 12.3832 16.8234C12.3603 16.8921 12.3442 16.9655 12.335 17.0434C12.3946 17.0663 12.4519 17.0732 12.5069 17.064C12.5619 17.0503 12.6261 17.0457 12.6994 17.0503C12.7361 17.0548 12.7727 17.0617 12.8094 17.0709C12.8461 17.08 12.8873 17.0869 12.9331 17.0915C13.0019 17.0961 13.0638 17.0961 13.1188 17.0915C13.1738 17.0823 13.2333 17.08 13.2975 17.0846C13.3204 17.0846 13.3502 17.0869 13.3869 17.0915C13.4235 17.0915 13.4579 17.0961 13.49 17.1053C13.5267 17.1144 13.5565 17.1282 13.5794 17.1465C13.6069 17.1602 13.6206 17.1809 13.6206 17.2084C13.6252 17.245 13.5954 17.284 13.5312 17.3252C13.4717 17.3619 13.4212 17.3894 13.38 17.4077C13.3021 17.4444 13.2265 17.465 13.1531 17.4696C13.0844 17.4742 12.9996 17.4879 12.8988 17.5109C12.8346 17.52 12.7773 17.5452 12.7269 17.5865C12.6811 17.6231 12.6192 17.6484 12.5413 17.6621C12.4634 17.6758 12.3969 17.685 12.3419 17.6896C12.2869 17.6896 12.2136 17.6942 12.1219 17.7033C12.0303 17.8225 11.9684 17.9623 11.9363 18.1227C11.9088 18.2785 11.8836 18.4366 11.8607 18.5971C11.8424 18.7162 11.8194 18.8377 11.7919 18.9614C11.7645 19.0806 11.7324 19.1929 11.6957 19.2983C11.682 19.3579 11.6545 19.4129 11.6132 19.4633C11.5765 19.5091 11.5399 19.5664 11.5032 19.6351C11.4803 19.6855 11.4597 19.736 11.4413 19.7864C11.4276 19.8368 11.407 19.878 11.3795 19.9101C11.3428 19.9468 11.2924 19.9743 11.2282 19.9926C11.1641 20.0109 11.1114 20.0339 11.0701 20.0614C11.0151 20.1072 10.9693 20.153 10.9326 20.1989C10.9005 20.2447 10.8524 20.2859 10.7882 20.3226C10.7424 20.3272 10.7035 20.3295 10.6714 20.3295C10.6439 20.3295 10.6187 20.3272 10.5958 20.3226C10.5728 20.318 10.5499 20.3089 10.527 20.2951C10.5087 20.2859 10.4858 20.2699 10.4583 20.247C10.4491 20.2195 10.4468 20.1943 10.4514 20.1714C10.456 20.153 10.4537 20.1278 10.4445 20.0957C10.417 20.0866 10.3941 20.0934 10.3758 20.1164C10.362 20.1439 10.3368 20.1576 10.3001 20.1576C10.2635 20.1576 10.2268 20.1347 10.1901 20.0889C10.1535 20.0476 10.1374 20.0064 10.142 19.9651C10.1466 19.933 10.1581 19.8964 10.1764 19.8551C10.1947 19.8093 10.2085 19.7612 10.2176 19.7108C10.2268 19.6695 10.2337 19.626 10.2383 19.5801C10.2474 19.5297 10.2589 19.4839 10.2726 19.4426C10.2818 19.4197 10.2933 19.3968 10.307 19.3739C10.3208 19.351 10.3299 19.3258 10.3345 19.2983C10.3483 19.2249 10.3528 19.1562 10.3483 19.092C10.3483 19.0233 10.3551 18.9568 10.3689 18.8927C10.3781 18.8698 10.3872 18.8491 10.3964 18.8308C10.4101 18.8125 10.4216 18.7918 10.4308 18.7689C10.4583 18.691 10.4858 18.6154 10.5133 18.5421C10.5408 18.4687 10.566 18.3954 10.5889 18.3221C10.6118 18.2442 10.637 18.1662 10.6645 18.0883C10.6966 18.0104 10.7057 17.9348 10.692 17.8615C10.6324 17.8569 10.5751 17.8615 10.5201 17.8752C10.4651 17.889 10.4101 17.905 10.3551 17.9233C10.3001 17.9417 10.2429 17.96 10.1833 17.9783C10.1237 17.9921 10.0618 17.999 9.99766 17.999C9.97016 17.999 9.9312 17.9967 9.88079 17.9921C9.83496 17.9875 9.78454 17.9829 9.72955 17.9783C9.67455 17.9738 9.61955 17.9738 9.56455 17.9783C9.51414 17.9783 9.47289 17.9806 9.44081 17.9852C9.38581 17.9944 9.32852 18.0127 9.26894 18.0402C9.21394 18.0677 9.15436 18.0906 9.0902 18.109C9.02604 18.1227 8.96646 18.141 8.91146 18.164C8.86104 18.1869 8.80834 18.2029 8.75334 18.2121C8.70293 18.2442 8.66626 18.2923 8.64335 18.3564C8.62043 18.416 8.59981 18.4802 8.58147 18.5489C8.56772 18.6177 8.5471 18.6818 8.5196 18.7414C8.49669 18.801 8.45544 18.8423 8.39586 18.8652C8.42336 18.8927 8.43481 18.95 8.43023 19.037C8.42565 19.1195 8.41648 19.1974 8.40273 19.2708C8.37982 19.3945 8.34774 19.5114 8.30649 19.6214C8.26982 19.7314 8.22628 19.8299 8.17587 19.917C8.10254 19.9491 8.0315 19.9812 7.96275 20.0132C7.89859 20.0499 7.82068 20.0728 7.72901 20.082C7.7061 20.0728 7.69006 20.0545 7.68089 20.027C7.67631 20.0041 7.67172 19.9789 7.66714 19.9514C7.64423 20.0064 7.61214 20.0499 7.5709 20.082C7.53423 20.1187 7.49298 20.1507 7.44715 20.1782C7.40132 20.2057 7.35549 20.2332 7.30966 20.2607C7.26841 20.2882 7.23404 20.3249 7.20654 20.3707C7.10113 20.3707 7.00946 20.3707 6.93155 20.3707C6.85364 20.3753 6.77802 20.3593 6.70469 20.3226C6.68177 20.2493 6.68177 20.1759 6.70469 20.1026C6.72302 20.0339 6.73677 19.9674 6.74593 19.9032C6.75052 19.8712 6.75052 19.8414 6.74593 19.8139C6.74135 19.7864 6.74135 19.7589 6.74593 19.7314C6.7551 19.6626 6.77343 19.5801 6.80093 19.4839C6.82385 19.3831 6.85135 19.296 6.88343 19.2227C6.89718 19.186 6.91551 19.1562 6.93843 19.1333C6.96134 19.1058 6.98197 19.0737 7.0003 19.037C7.01863 18.9912 7.03009 18.9477 7.03467 18.9064C7.03925 18.8652 7.05071 18.8262 7.06904 18.7895C7.07821 18.7483 7.09196 18.7116 7.11029 18.6796C7.13321 18.6429 7.14925 18.6062 7.15842 18.5696C7.16758 18.5375 7.16987 18.5054 7.16529 18.4733C7.16529 18.4412 7.16987 18.4069 7.17904 18.3702C7.18362 18.3473 7.19279 18.3267 7.20654 18.3083C7.22029 18.29 7.22945 18.2694 7.23404 18.2464C7.23862 18.196 7.22716 18.1479 7.19966 18.1021C7.17216 18.0517 7.14696 18.0035 7.12404 17.9577C7.10113 17.9119 7.08738 17.8638 7.08279 17.8133C7.07821 17.7629 7.10113 17.7102 7.15154 17.6552C7.19737 17.6415 7.2432 17.63 7.28903 17.6209C7.33945 17.6071 7.3807 17.5888 7.41278 17.5659C7.43569 17.4742 7.45403 17.3848 7.46778 17.2977C7.48153 17.2107 7.49986 17.1236 7.52277 17.0365C7.53194 16.9907 7.54569 16.9471 7.56402 16.9059C7.58694 16.8646 7.60298 16.8257 7.61214 16.789C7.62131 16.7478 7.6236 16.7065 7.61902 16.6653C7.61444 16.6194 7.61902 16.5782 7.63277 16.5415C7.64193 16.5049 7.66027 16.4751 7.68777 16.4522C7.71526 16.4292 7.73589 16.3995 7.74964 16.3628C7.71297 16.3078 7.69693 16.239 7.70152 16.1565C7.71068 16.074 7.72672 15.987 7.74964 15.8953C7.77714 15.8036 7.80693 15.712 7.83901 15.6203C7.87109 15.5241 7.89401 15.4324 7.90776 15.3453C7.93067 15.2491 7.95359 15.1643 7.9765 15.091C7.99942 15.0176 8.05442 14.9718 8.14149 14.9535C8.30649 14.9718 8.46919 14.9649 8.6296 14.9329C8.79001 14.8962 8.95042 14.8572 9.11082 14.816C9.13374 14.8114 9.1452 14.8206 9.1452 14.8435C9.14978 14.8618 9.16124 14.8733 9.17957 14.8779C9.21165 14.8458 9.2529 14.8229 9.30332 14.8091C9.35373 14.7908 9.40414 14.7839 9.45456 14.7885C9.50956 14.7885 9.56226 14.7977 9.61268 14.816C9.66309 14.8297 9.70434 14.8504 9.73642 14.8779Z" fill="white"/>
<path d="M9.73642 13.8779C9.73642 13.9099 9.72725 13.9397 9.70892 13.9672C9.69059 13.9901 9.66997 14.0131 9.64705 14.036C9.62413 14.0543 9.59893 14.0749 9.57143 14.0978C9.54851 14.1208 9.53018 14.146 9.51643 14.1735C9.51185 14.1826 9.50956 14.1987 9.50956 14.2216C9.51414 14.2399 9.51185 14.256 9.50268 14.2697C9.47977 14.3339 9.44768 14.4049 9.40644 14.4828C9.36519 14.5562 9.32852 14.6318 9.29644 14.7097C9.28269 14.7464 9.26665 14.7853 9.24832 14.8266C9.23457 14.8632 9.21624 14.8999 9.19332 14.9366C9.17499 14.9732 9.15207 15.0122 9.12457 15.0534C9.10166 15.0901 9.08791 15.1222 9.08333 15.1497C9.07874 15.1726 9.08103 15.1955 9.0902 15.2184C9.10395 15.2368 9.11082 15.2574 9.11082 15.2803C9.10166 15.3261 9.08791 15.3742 9.06958 15.4247C9.05124 15.4751 9.03749 15.5255 9.02833 15.5759C9.01916 15.6355 9.01 15.6928 9.00083 15.7478C8.99625 15.7982 8.98708 15.8463 8.97333 15.8921C8.95042 15.9563 8.92521 16.0319 8.89771 16.119C8.87021 16.2015 8.84959 16.2886 8.83584 16.3802C8.99625 16.3802 9.14978 16.3596 9.29644 16.3184C9.44768 16.2771 9.58976 16.2336 9.72267 16.1877C9.75475 16.1969 9.80288 16.2038 9.86704 16.2084C9.9312 16.213 9.99766 16.2152 10.0664 16.2152C10.1397 16.2152 10.2131 16.2152 10.2864 16.2152C10.3597 16.2107 10.4239 16.2038 10.4789 16.1946C10.5339 16.19 10.6003 16.1786 10.6783 16.1602C10.7562 16.1373 10.8066 16.1121 10.8295 16.0846C10.8662 16.0342 10.8914 15.9609 10.9051 15.8646C10.9189 15.7684 10.9372 15.6767 10.9601 15.5897C10.983 15.5117 11.0105 15.4361 11.0426 15.3628C11.0747 15.2895 11.0999 15.2184 11.1182 15.1497C11.1274 15.1222 11.1297 15.0947 11.1251 15.0672C11.1251 15.0351 11.1297 15.0053 11.1389 14.9778C11.1618 14.8999 11.1961 14.8243 11.242 14.7509C11.2878 14.6776 11.3176 14.6157 11.3313 14.5653C11.3451 14.5149 11.3543 14.4622 11.3588 14.4072C11.3634 14.3522 11.368 14.2995 11.3726 14.2491C11.3818 14.1987 11.3909 14.1528 11.4001 14.1116C11.4138 14.0658 11.4368 14.0268 11.4688 13.9947C11.4872 13.9856 11.5032 13.9764 11.517 13.9672C11.5353 13.9535 11.5536 13.9397 11.572 13.926C11.6315 13.9443 11.6842 13.9535 11.7301 13.9535C11.7759 13.9535 11.8194 13.9512 11.8607 13.9466C11.9065 13.9374 11.9501 13.926 11.9913 13.9122C12.0326 13.8985 12.0807 13.8847 12.1357 13.871C12.1769 13.9076 12.209 13.9489 12.2319 13.9947C12.2548 14.036 12.2984 14.0589 12.3625 14.0635C12.39 14.0635 12.4175 14.0543 12.445 14.036C12.4725 14.0176 12.5046 14.0039 12.5413 13.9947C12.6055 13.9764 12.6834 13.9558 12.775 13.9329C12.8713 13.9054 12.9538 13.8916 13.0225 13.8916C13.1004 13.887 13.1715 13.8939 13.2356 13.9122C13.2998 13.926 13.3708 13.9214 13.4487 13.8985C13.4671 13.9168 13.4831 13.9374 13.4969 13.9604C13.5106 13.9833 13.5106 14.0176 13.4969 14.0635C13.451 14.1001 13.4029 14.1322 13.3525 14.1597C13.3067 14.1826 13.2585 14.2078 13.2081 14.2353C13.1623 14.2583 13.1165 14.2835 13.0706 14.311C13.0294 14.3385 12.9904 14.3728 12.9538 14.4141C12.8896 14.4874 12.8346 14.5745 12.7888 14.6753C12.7475 14.7761 12.7017 14.8724 12.6513 14.9641C12.633 14.9961 12.6123 15.0282 12.5894 15.0603C12.5665 15.0878 12.5505 15.113 12.5413 15.1359C12.5138 15.2047 12.4955 15.2803 12.4863 15.3628C12.4771 15.4407 12.4634 15.5186 12.445 15.5965C12.4267 15.6744 12.4061 15.7501 12.3832 15.8234C12.3603 15.8921 12.3442 15.9655 12.335 16.0434C12.3946 16.0663 12.4519 16.0732 12.5069 16.064C12.5619 16.0503 12.6261 16.0457 12.6994 16.0503C12.7361 16.0548 12.7727 16.0617 12.8094 16.0709C12.8461 16.08 12.8873 16.0869 12.9331 16.0915C13.0019 16.0961 13.0638 16.0961 13.1188 16.0915C13.1738 16.0823 13.2333 16.08 13.2975 16.0846C13.3204 16.0846 13.3502 16.0869 13.3869 16.0915C13.4235 16.0915 13.4579 16.0961 13.49 16.1053C13.5267 16.1144 13.5565 16.1282 13.5794 16.1465C13.6069 16.1602 13.6206 16.1809 13.6206 16.2084C13.6252 16.245 13.5954 16.284 13.5312 16.3252C13.4717 16.3619 13.4212 16.3894 13.38 16.4077C13.3021 16.4444 13.2265 16.465 13.1531 16.4696C13.0844 16.4742 12.9996 16.4879 12.8988 16.5109C12.8346 16.52 12.7773 16.5452 12.7269 16.5865C12.6811 16.6231 12.6192 16.6484 12.5413 16.6621C12.4634 16.6758 12.3969 16.685 12.3419 16.6896C12.2869 16.6896 12.2136 16.6942 12.1219 16.7033C12.0303 16.8225 11.9684 16.9623 11.9363 17.1227C11.9088 17.2785 11.8836 17.4366 11.8607 17.5971C11.8424 17.7162 11.8194 17.8377 11.7919 17.9614C11.7645 18.0806 11.7324 18.1929 11.6957 18.2983C11.682 18.3579 11.6545 18.4129 11.6132 18.4633C11.5765 18.5091 11.5399 18.5664 11.5032 18.6351C11.4803 18.6855 11.4597 18.736 11.4413 18.7864C11.4276 18.8368 11.407 18.878 11.3795 18.9101C11.3428 18.9468 11.2924 18.9743 11.2282 18.9926C11.1641 19.0109 11.1114 19.0339 11.0701 19.0614C11.0151 19.1072 10.9693 19.153 10.9326 19.1989C10.9005 19.2447 10.8524 19.2859 10.7882 19.3226C10.7424 19.3272 10.7035 19.3295 10.6714 19.3295C10.6439 19.3295 10.6187 19.3272 10.5958 19.3226C10.5728 19.318 10.5499 19.3089 10.527 19.2951C10.5087 19.2859 10.4858 19.2699 10.4583 19.247C10.4491 19.2195 10.4468 19.1943 10.4514 19.1714C10.456 19.153 10.4537 19.1278 10.4445 19.0957C10.417 19.0866 10.3941 19.0934 10.3758 19.1164C10.362 19.1439 10.3368 19.1576 10.3001 19.1576C10.2635 19.1576 10.2268 19.1347 10.1901 19.0889C10.1535 19.0476 10.1374 19.0064 10.142 18.9651C10.1466 18.933 10.1581 18.8964 10.1764 18.8551C10.1947 18.8093 10.2085 18.7612 10.2176 18.7108C10.2268 18.6695 10.2337 18.626 10.2383 18.5801C10.2474 18.5297 10.2589 18.4839 10.2726 18.4426C10.2818 18.4197 10.2933 18.3968 10.307 18.3739C10.3208 18.351 10.3299 18.3258 10.3345 18.2983C10.3483 18.2249 10.3528 18.1562 10.3483 18.092C10.3483 18.0233 10.3551 17.9568 10.3689 17.8927C10.3781 17.8698 10.3872 17.8491 10.3964 17.8308C10.4101 17.8125 10.4216 17.7918 10.4308 17.7689C10.4583 17.691 10.4858 17.6154 10.5133 17.5421C10.5408 17.4687 10.566 17.3954 10.5889 17.3221C10.6118 17.2442 10.637 17.1662 10.6645 17.0883C10.6966 17.0104 10.7057 16.9348 10.692 16.8615C10.6324 16.8569 10.5751 16.8615 10.5201 16.8752C10.4651 16.889 10.4101 16.905 10.3551 16.9233C10.3001 16.9417 10.2429 16.96 10.1833 16.9783C10.1237 16.9921 10.0618 16.999 9.99766 16.999C9.97016 16.999 9.9312 16.9967 9.88079 16.9921C9.83496 16.9875 9.78454 16.9829 9.72955 16.9783C9.67455 16.9738 9.61955 16.9738 9.56455 16.9783C9.51414 16.9783 9.47289 16.9806 9.44081 16.9852C9.38581 16.9944 9.32852 17.0127 9.26894 17.0402C9.21394 17.0677 9.15436 17.0906 9.0902 17.109C9.02604 17.1227 8.96646 17.141 8.91146 17.164C8.86104 17.1869 8.80834 17.2029 8.75334 17.2121C8.70293 17.2442 8.66626 17.2923 8.64335 17.3564C8.62043 17.416 8.59981 17.4802 8.58147 17.5489C8.56772 17.6177 8.5471 17.6818 8.5196 17.7414C8.49669 17.801 8.45544 17.8423 8.39586 17.8652C8.42336 17.8927 8.43481 17.95 8.43023 18.037C8.42565 18.1195 8.41648 18.1974 8.40273 18.2708C8.37982 18.3945 8.34774 18.5114 8.30649 18.6214C8.26982 18.7314 8.22628 18.8299 8.17587 18.917C8.10254 18.9491 8.0315 18.9812 7.96275 19.0132C7.89859 19.0499 7.82068 19.0728 7.72901 19.082C7.7061 19.0728 7.69006 19.0545 7.68089 19.027C7.67631 19.0041 7.67172 18.9789 7.66714 18.9514C7.64423 19.0064 7.61214 19.0499 7.5709 19.082C7.53423 19.1187 7.49298 19.1507 7.44715 19.1782C7.40132 19.2057 7.35549 19.2332 7.30966 19.2607C7.26841 19.2882 7.23404 19.3249 7.20654 19.3707C7.10113 19.3707 7.00946 19.3707 6.93155 19.3707C6.85364 19.3753 6.77802 19.3593 6.70469 19.3226C6.68177 19.2493 6.68177 19.1759 6.70469 19.1026C6.72302 19.0339 6.73677 18.9674 6.74593 18.9032C6.75052 18.8712 6.75052 18.8414 6.74593 18.8139C6.74135 18.7864 6.74135 18.7589 6.74593 18.7314C6.7551 18.6626 6.77343 18.5801 6.80093 18.4839C6.82385 18.3831 6.85135 18.296 6.88343 18.2227C6.89718 18.186 6.91551 18.1562 6.93843 18.1333C6.96134 18.1058 6.98197 18.0737 7.0003 18.037C7.01863 17.9912 7.03009 17.9477 7.03467 17.9064C7.03925 17.8652 7.05071 17.8262 7.06904 17.7895C7.07821 17.7483 7.09196 17.7116 7.11029 17.6796C7.13321 17.6429 7.14925 17.6062 7.15842 17.5696C7.16758 17.5375 7.16987 17.5054 7.16529 17.4733C7.16529 17.4412 7.16987 17.4069 7.17904 17.3702C7.18362 17.3473 7.19279 17.3267 7.20654 17.3083C7.22029 17.29 7.22945 17.2694 7.23404 17.2464C7.23862 17.196 7.22716 17.1479 7.19966 17.1021C7.17216 17.0517 7.14696 17.0035 7.12404 16.9577C7.10113 16.9119 7.08738 16.8638 7.08279 16.8133C7.07821 16.7629 7.10113 16.7102 7.15154 16.6552C7.19737 16.6415 7.2432 16.63 7.28903 16.6209C7.33945 16.6071 7.3807 16.5888 7.41278 16.5659C7.43569 16.4742 7.45403 16.3848 7.46778 16.2977C7.48153 16.2107 7.49986 16.1236 7.52277 16.0365C7.53194 15.9907 7.54569 15.9471 7.56402 15.9059C7.58694 15.8646 7.60298 15.8257 7.61214 15.789C7.62131 15.7478 7.6236 15.7065 7.61902 15.6653C7.61444 15.6194 7.61902 15.5782 7.63277 15.5415C7.64193 15.5049 7.66027 15.4751 7.68777 15.4522C7.71526 15.4292 7.73589 15.3995 7.74964 15.3628C7.71297 15.3078 7.69693 15.239 7.70152 15.1565C7.71068 15.074 7.72672 14.987 7.74964 14.8953C7.77714 14.8036 7.80693 14.712 7.83901 14.6203C7.87109 14.5241 7.89401 14.4324 7.90776 14.3453C7.93067 14.2491 7.95359 14.1643 7.9765 14.091C7.99942 14.0176 8.05442 13.9718 8.14149 13.9535C8.30649 13.9718 8.46919 13.9649 8.6296 13.9329C8.79001 13.8962 8.95042 13.8572 9.11082 13.816C9.13374 13.8114 9.1452 13.8206 9.1452 13.8435C9.14978 13.8618 9.16124 13.8733 9.17957 13.8779C9.21165 13.8458 9.2529 13.8229 9.30332 13.8091C9.35373 13.7908 9.40414 13.7839 9.45456 13.7885C9.50956 13.7885 9.56226 13.7977 9.61268 13.816C9.66309 13.8297 9.70434 13.8504 9.73642 13.8779Z" fill="white"/>
</svg>
